<?xml version="1.0" encoding="UTF-8"?>
<!DOCTYPE svg PUBLIC "-//W3C//DTD SVG 1.1//EN" "http://www.w3.org/Graphics/SVG/1.1/DTD/svg11.dtd">
<!-- Creator: CorelDRAW -->
<svg xmlns="http://www.w3.org/2000/svg" xml:space="preserve" width="2.5398mm" height="2.5398mm" version="1.1" style="shape-rendering:geometricPrecision; text-rendering:geometricPrecision; image-rendering:optimizeQuality; fill-rule:evenodd; clip-rule:evenodd"
viewBox="0 0 253.98 253.98"
 xmlns:xlink="http://www.w3.org/1999/xlink"
 xmlns:xodm="http://www.corel.com/coreldraw/odm/2003">
 <defs>
  <style type="text/css">
   <![CDATA[
    .fil0 {fill:none}
    .fil3 {fill:#333333}
    .fil1 {fill:#F21B1B}
    .fil8 {fill:white}
    .fil2 {fill:#E63D3F;fill-rule:nonzero}
    .fil4 {fill:#F21B1B;fill-rule:nonzero}
    .fil7 {fill:#FFCC00;fill-rule:nonzero}
    .fil6 {fill:#FFCC00;fill-rule:nonzero}
    .fil5 {fill:white;fill-rule:nonzero}
   ]]>
  </style>
 </defs>
 <g id="Camada_x0020_1">
  <metadata id="CorelCorpID_0Corel-Layer"/>
  <rect class="fil0" x="-0.02" y="-0" width="253.99" height="253.99"/>
  <circle class="fil1" cx="126.99" cy="131.3" r="122.7"/>
  <path class="fil2" d="M121.86 16.12c7.86,-5.47 16.45,3.12 10.99,10.98 -0.19,0.28 -0.45,0.54 -0.72,0.73 -7.87,5.46 -16.46,-3.13 -11,-10.99 0.2,-0.28 0.45,-0.53 0.73,-0.72z"/>
  <circle class="fil3" cx="126.99" cy="129.92" r="96.35"/>
  <path class="fil4" d="M127.03 128.34l62.38 -62.38c-11.36,-11.36 -25.06,-18.95 -39.55,-22.82l-22.83 85.2z"/>
  <path class="fil5" d="M127.03 128.34l22.83 -85.2c-14.94,-3.99 -30.72,-3.99 -45.66,0l22.83 85.2z"/>
  <path class="fil6" d="M104.2 43.14c-14.49,3.87 -28.18,11.46 -39.55,22.82l62.38 62.38 -22.83 -85.2z"/>
  <path class="fil4" d="M127.03 128.34l-62.38 -62.38c-11.36,11.37 -18.95,25.07 -22.82,39.56l85.2 22.82z"/>
  <path class="fil4" d="M189.41 190.72c11.37,-11.36 18.96,-25.06 22.83,-39.55l-85.21 -22.83 62.38 62.38z"/>
  <path class="fil6" d="M127.03 128.34l22.84 85.21c14.48,-3.87 28.18,-11.46 39.54,-22.83l-62.38 -62.38z"/>
  <path class="fil5" d="M41.83 105.52c-3.99,14.94 -3.99,30.71 0,45.66l85.2 -22.84 -85.2 -22.82z"/>
  <path class="fil6" d="M127.03 128.34l85.21 -22.83c-3.87,-14.48 -11.46,-28.18 -22.83,-39.55l-62.38 62.38z"/>
  <path class="fil5" d="M127.03 128.34l85.21 22.83c3.98,-14.94 3.98,-30.72 0,-45.66l-85.21 22.83z"/>
  <path class="fil6" d="M41.83 151.18c3.87,14.48 11.46,28.18 22.82,39.54l62.38 -62.38 -85.2 22.84z"/>
  <path class="fil5" d="M104.21 213.55c14.94,3.98 30.71,3.98 45.66,0l-22.84 -85.21 -22.82 85.21z"/>
  <path class="fil4" d="M64.65 190.72c11.37,11.37 25.07,18.96 39.56,22.83l22.82 -85.21 -62.38 62.38z"/>
  <circle class="fil3" cx="126.99" cy="128.34" r="27.8"/>
  <path class="fil7" d="M96.6 228.6c9.01,-3.24 15.08,7.27 7.77,13.45 -0.26,0.22 -0.58,0.41 -0.89,0.52 -9.01,3.24 -15.08,-7.28 -7.77,-13.46 0.25,-0.22 0.57,-0.4 0.89,-0.51zm-81.52 -121.65c-3.23,-9 7.28,-15.07 13.46,-7.77 0.22,0.26 0.4,0.58 0.52,0.9 3.23,9.01 -7.28,15.07 -13.46,7.77 -0.22,-0.26 -0.4,-0.58 -0.52,-0.9zm105.87 126.26c7.86,-5.46 16.45,3.13 10.99,10.99 -0.2,0.28 -0.45,0.53 -0.73,0.73 -7.86,5.46 -16.45,-3.13 -10.99,-11 0.2,-0.27 0.45,-0.53 0.73,-0.72zm32.99 9.77c-4.91,0 -9.21,-4.82 -6.97,-11.03 0.11,-0.32 0.29,-0.63 0.51,-0.89 1.92,-2.27 4.26,-3.24 6.47,-3.24 4.92,0 9.22,4.81 6.99,11.01 -0.12,0.32 -0.3,0.64 -0.52,0.9 -1.92,2.27 -4.26,3.25 -6.48,3.25zm25.99 -10.76c-4.15,0 -8.12,-3.41 -7.65,-9.09 0.03,-0.34 0.12,-0.69 0.27,-1 1.65,-3.5 4.55,-5.07 7.36,-5.07 4.15,0 8.12,3.41 7.65,9.1 -0.03,0.34 -0.12,0.69 -0.27,0.99 -1.65,3.5 -4.55,5.07 -7.36,5.07zm22.29 -17.11c-3.45,0 -6.9,-2.34 -7.76,-7.03 -0.07,-0.36 -0.07,-0.75 0,-1.1 0.86,-4.69 4.31,-7.03 7.76,-7.03 3.45,0 6.9,2.34 7.77,7.03 0.06,0.35 0.06,0.74 0,1.1 -0.87,4.69 -4.32,7.03 -7.77,7.03zm17.11 -22.3c-2.82,0 -5.72,-1.57 -7.37,-5.07 -0.14,-0.31 -0.24,-0.66 -0.27,-1 -0.47,-5.68 3.5,-9.09 7.65,-9.09 2.81,0 5.71,1.57 7.36,5.06 0.15,0.31 0.24,0.66 0.27,1 0.47,5.68 -3.5,9.1 -7.64,9.1zm10.76 -25.97l-0.28 -0.01 -0.01 0 -0.02 0 -0.28 -0.02 -0.09 0 -0.26 -0.03 -0.06 -0.01 -0.25 -0.04 -0.06 -0.01 -0.05 -0.01 -0.24 -0.04 -0.07 -0.02c-0.1,-0.02 -0.21,-0.05 -0.31,-0.08l-0.01 0c-0.1,-0.03 -0.21,-0.06 -0.31,-0.09l-0.02 -0.01 -0.01 0 -0.29 -0.1 -0.04 -0.01 -0.02 -0.01 -0.25 -0.1 -0.06 -0.03 -0.04 -0.01 -0.25 -0.12 -0.08 -0.03 -0.26 -0.13 -0.07 -0.04c-0.09,-0.05 -0.17,-0.1 -0.26,-0.15l-0.08 -0.04c-0.09,-0.06 -0.18,-0.11 -0.27,-0.17l-0.03 -0.02 -0.29 -0.2 -0.01 -0.01 -0.03 -0.02 -0.25 -0.19 -0.08 -0.06 -0.25 -0.2 -0.01 -0.01 -0.02 -0.01 -0.03 -0.03 -0.25 -0.23 -0.05 -0.04c-0.09,-0.08 -0.17,-0.17 -0.26,-0.25l-0.03 -0.04c-0.1,-0.09 -0.19,-0.19 -0.28,-0.28l-0.01 -0.02 -0.02 -0.02c-0.09,-0.1 -0.18,-0.2 -0.27,-0.31 -0.22,-0.26 -0.4,-0.58 -0.52,-0.9 -0.04,-0.12 -0.08,-0.24 -0.12,-0.36l-0.04 -0.12 -0.09 -0.31 -0.01 -0.04 -0.01 -0.03c-0.03,-0.12 -0.06,-0.24 -0.09,-0.36l-0.01 -0.06 -0.07 -0.31 -0.01 -0.09c-0.02,-0.11 -0.04,-0.22 -0.06,-0.33l-0.01 -0.12 -0.03 -0.22 -0.02 -0.14c-0.01,-0.11 -0.01,-0.21 -0.02,-0.31l0 -0.13 -0.01 -0.21 0 -0.13 0 -0.27 0.01 -0.13 0.01 -0.24 0.01 -0.1 0.03 -0.29 0 -0.03 0 -0.01c0.01,-0.1 0.03,-0.19 0.04,-0.29l0.03 -0.12 0.03 -0.19 0.03 -0.13 0.05 -0.23 0.01 -0.02 0.04 -0.15 0.04 -0.15 0.04 -0.12 0.08 -0.24 0.06 -0.15 0.06 -0.15 0.04 -0.12 0.11 -0.23 0.05 -0.11 0.08 -0.17 0.06 -0.1 0.09 -0.17 0.09 -0.16 0.1 -0.16 0.06 -0.09 0.1 -0.14 0.12 -0.17 0.1 -0.14 0.08 -0.1 0.11 -0.14 0.07 -0.08 0.18 -0.21 0.05 -0.05 0.16 -0.17 0.05 -0.04 0.21 -0.21 0.02 -0.01 0.19 -0.17 0.08 -0.06c0.14,-0.12 0.29,-0.23 0.44,-0.34l0.07 -0.05c0.08,-0.05 0.16,-0.11 0.24,-0.16l0.01 0c0.08,-0.05 0.16,-0.1 0.24,-0.15l0.06 -0.03c0.27,-0.16 0.55,-0.3 0.84,-0.42l0 0c0.1,-0.04 0.2,-0.08 0.3,-0.12l0 0c0.51,-0.18 1.03,-0.32 1.57,-0.39l0.03 -0.01c0.21,-0.02 0.42,-0.04 0.64,-0.06l0.01 0c0.12,0 0.24,-0.01 0.36,-0.01 0.66,0 1.33,0.09 1.99,0.27l0.01 0c0.1,0.03 0.2,0.06 0.31,0.09l0.02 0.01c0.11,0.04 0.22,0.07 0.33,0.12 0.11,0.04 0.22,0.08 0.33,0.13l0.01 0c0.11,0.05 0.22,0.1 0.33,0.15l0.02 0.01c0.1,0.05 0.21,0.1 0.31,0.15l0 0.01c0.1,0.05 0.21,0.11 0.31,0.16l0.02 0.02 0.02 0.01c0.08,0.05 0.17,0.11 0.26,0.16l0.05 0.03 0.01 0.01c0.1,0.07 0.21,0.14 0.31,0.21l0 0c0.1,0.07 0.2,0.15 0.3,0.22l0.02 0.02 0.01 0.01 0.01 0.01c0.09,0.07 0.19,0.15 0.28,0.23l0.01 0.01 0.03 0.02c0.08,0.07 0.17,0.15 0.25,0.23l0.07 0.06c0.09,0.08 0.17,0.16 0.25,0.24l0.02 0.02c0.09,0.09 0.18,0.19 0.27,0.28l0.02 0.03 0.02 0.02 0.01 0c0.09,0.1 0.18,0.21 0.27,0.31 0.22,0.26 0.4,0.58 0.51,0.89 0.05,0.12 0.09,0.24 0.12,0.35l0.05 0.14 0.08 0.3 0.02 0.05 0.01 0.03c0.03,0.11 0.06,0.23 0.08,0.34l0.02 0.09c0.03,0.11 0.05,0.22 0.07,0.33l0.01 0.04c0.02,0.12 0.04,0.25 0.06,0.38l0 0.02c0.02,0.12 0.03,0.23 0.04,0.34l0.01 0.07c0.01,0.11 0.02,0.22 0.03,0.33l0 0.11 0.01 0.23 0 0.13 0 0.31 0 0.01 0 0.01c-0.01,0.1 -0.01,0.21 -0.02,0.32l-0.01 0.08 -0.03 0.29 0 0.04 0 0.01 0 0 -0.05 0.3 -0.01 0.09 -0.06 0.28 0 0.03c-0.03,0.11 -0.05,0.21 -0.08,0.31l-0.02 0.08 -0.06 0.21 -0.03 0.1 -0.09 0.27 -0.04 0.09 -0.07 0.2 -0.04 0.09 -0.11 0.25 -0.01 0.03 -0.01 0.01c-0.04,0.09 -0.09,0.18 -0.13,0.26l-0.03 0.05c-0.04,0.08 -0.08,0.17 -0.13,0.25l-0.01 0.02 -0.01 0 -0.02 0.03 -0.13 0.23 -0.04 0.06 -0.15 0.21 -0.01 0.03 -0.02 0.01 -0.16 0.22 -0.06 0.08 -0.15 0.18 -0.03 0.04c-0.06,0.07 -0.13,0.15 -0.19,0.22l-0.05 0.04 -0.16 0.18 -0.05 0.04 -0.2 0.2 -0.08 0.07 -0.13 0.11 -0.09 0.07c-0.07,0.06 -0.14,0.12 -0.21,0.17l-0.01 0.01 -0.01 0.01 -0.21 0.15 -0.07 0.05 -0.2 0.13 -0.04 0.03 -0.01 0 -0.04 0.03 -0.2 0.12 -0.06 0.04 -0.19 0.1 -0.11 0.06 -0.22 0.11 -0.06 0.02 -0.22 0.1 -0.07 0.03 -0.02 0.01 -0.21 0.08 -0.01 0.01 -0.11 0.04 -0.17 0.06 -0.09 0.02 -0.26 0.08 -0.03 0.01 -0.05 0.01 -0.21 0.06 -0.09 0.02 -0.23 0.04 -0.04 0.01 -0.01 0.01 -0.07 0.01 -0.22 0.03 -0.08 0.01 -0.22 0.03 -0.12 0.01 -0.24 0.02 -0.08 0 -0.24 0.01 -0.05 0 -0.04 0zm3.67 -27.87c-1.64,0 -3.41,-0.52 -5.13,-1.72 -0.28,-0.2 -0.53,-0.45 -0.73,-0.73 -4.26,-6.13 0.03,-12.71 5.86,-12.71 1.64,0 3.4,0.52 5.13,1.72 0.28,0.19 0.53,0.45 0.73,0.72 4.26,6.14 -0.03,12.72 -5.86,12.72zm-3.8 -27.86c-1.05,0 -2.16,-0.19 -3.32,-0.61 -0.32,-0.12 -0.64,-0.3 -0.89,-0.52 -6.35,-5.39 -2.56,-14.06 4.47,-14.06 1.04,0 2.15,0.19 3.31,0.61 0.32,0.11 0.63,0.3 0.89,0.51 6.37,5.39 2.58,14.07 -4.46,14.07zm-11.23 -25.89c-0.3,0 -0.6,-0.01 -0.91,-0.03 -0.34,-0.03 -0.69,-0.13 -1,-0.27 -8.37,-3.95 -5.7,-15.05 3.11,-15.05 0.3,0 0.6,0.01 0.92,0.04 0.34,0.03 0.69,0.12 1,0.27 8.36,3.95 5.7,15.04 -3.12,15.04zm-16.51 -22.16c-0.19,0 -0.37,-0.02 -0.55,-0.05 -0.63,-0.12 -1.22,-0.28 -1.77,-0.48 -2.56,-0.96 -4.18,-2.81 -4.88,-4.9 -1.35,-4.08 0.87,-9.09 6.65,-10.15 0.18,-0.03 0.36,-0.05 0.55,-0.05 0.19,0 0.37,0.02 0.55,0.05 9.37,1.72 9.37,13.81 0,15.53 -0.18,0.03 -0.36,0.05 -0.55,0.05zm-21.7 -17.25c-8.82,0 -11.48,-11.1 -3.11,-15.05 0.31,-0.14 0.66,-0.24 1,-0.27 0.31,-0.02 0.61,-0.03 0.91,-0.03 8.82,0 11.48,11.09 3.11,15.05 -0.31,0.14 -0.66,0.23 -0.99,0.26 -0.32,0.03 -0.62,0.04 -0.92,0.04zm-26.44 -10.84c-7.04,0 -10.83,-8.67 -4.47,-14.06 0.26,-0.22 0.57,-0.4 0.89,-0.52 1.16,-0.42 2.28,-0.61 3.32,-0.61 7.04,0 10.83,8.68 4.46,14.07 -0.26,0.22 -0.58,0.4 -0.9,0.52 -1.15,0.41 -2.26,0.6 -3.3,0.6zm-62.34 -11.93c6.18,-7.3 16.69,-1.23 13.46,7.78 -0.12,0.32 -0.3,0.63 -0.52,0.89 -6.18,7.3 -16.69,1.23 -13.46,-7.77 0.12,-0.32 0.3,-0.64 0.52,-0.9zm-26.87 12.59c4.08,-8.67 15.81,-5.52 15.01,4.02 -0.03,0.34 -0.12,0.69 -0.27,1 -4.08,8.65 -15.8,5.51 -15.01,-4.03 0.03,-0.33 0.12,-0.69 0.27,-0.99zm-22.7 19.07c1.73,-9.38 13.81,-9.38 15.53,0 0.07,0.35 0.07,0.74 0,1.09 -1.72,9.38 -13.8,9.38 -15.53,0 -0.06,-0.35 -0.06,-0.74 0,-1.09zm-16.98 24.36c-0.8,-9.54 10.93,-12.68 15.01,-4.02 0.14,0.31 0.24,0.66 0.27,1 0.79,9.53 -10.93,12.67 -15.01,4.02 -0.15,-0.31 -0.24,-0.66 -0.27,-1zm0.9 47.38c5.46,7.86 -3.13,16.45 -11,10.99 -0.27,-0.19 -0.53,-0.45 -0.72,-0.72 -5.46,-7.87 3.13,-16.46 10.99,-10.99 0.28,0.19 0.53,0.44 0.73,0.72zm2.14 26.53c7.3,6.18 1.23,16.69 -7.77,13.46 -0.32,-0.12 -0.64,-0.3 -0.9,-0.52 -7.3,-6.18 -1.23,-16.69 7.77,-13.46 0.32,0.12 0.64,0.3 0.9,0.52zm8.94 25.07c8.65,4.08 5.51,15.8 -4.02,15.01 -0.34,-0.03 -0.7,-0.12 -1,-0.26 -8.66,-4.08 -5.52,-15.81 4.02,-15.02 0.34,0.03 0.69,0.13 1,0.27zm15.15 21.91c9.37,1.72 9.37,13.81 0,15.53 -0.36,0.06 -0.75,0.06 -1.1,0 -9.38,-1.72 -9.38,-13.81 0,-15.53 0.35,-0.07 0.74,-0.07 1.1,0zm20.24 17.24c9.53,-0.79 12.67,10.93 4.02,15.01 -0.31,0.14 -0.66,0.24 -1,0.27 -9.54,0.79 -12.68,-10.94 -4.02,-15.02 0.31,-0.14 0.66,-0.24 1,-0.26z"/>
  <path class="fil6" d="M107.27 6.38l19.72 58.79 19.72 -58.79c-13.17,-3.66 -26.28,-3.8 -39.44,0z"/>
  <path class="fil8" d="M135.65 111.3c6.19,3.15 10.43,9.58 10.43,17.01 0,4.64 -1.66,8.89 -4.41,12.2l0.63 2.25c-3.84,4.07 -9.28,6.61 -15.31,6.61 -6.05,0 -11.48,-2.54 -15.3,-6.6l0.64 -2.24c-2.76,-3.31 -4.42,-7.57 -4.42,-12.22 0,-7.42 4.22,-13.84 10.4,-17l-0.76 -1.76c2.84,-1.43 6.05,-2.24 9.44,-2.24 3.39,0 6.6,0.81 9.43,2.23l-0.77 1.76zm-8.71 19.84l-8.37 -19.24c-5.95,3.06 -10.02,9.26 -10.02,16.41 0,4.33 1.5,8.31 4,11.46l4.8 -16.72 9.77 21.82 9.67 -21.95 4.67 16.82c2.49,-3.14 3.97,-7.11 3.97,-11.43 0,-7.16 -4.08,-13.37 -10.04,-16.42l-8.45 19.25z"/>
 </g>
</svg>
