<?xml version="1.0" encoding="UTF-8"?>
<!DOCTYPE svg PUBLIC "-//W3C//DTD SVG 1.1//EN" "http://www.w3.org/Graphics/SVG/1.1/DTD/svg11.dtd">
<!-- Creator: CorelDRAW -->
<svg xmlns="http://www.w3.org/2000/svg" xml:space="preserve" width="2.5398mm" height="2.5398mm" version="1.1" style="shape-rendering:geometricPrecision; text-rendering:geometricPrecision; image-rendering:optimizeQuality; fill-rule:evenodd; clip-rule:evenodd"
viewBox="0 0 253.98 253.98"
 xmlns:xlink="http://www.w3.org/1999/xlink"
 xmlns:xodm="http://www.corel.com/coreldraw/odm/2003">
 <defs>
  <style type="text/css">
   <![CDATA[
    .fil0 {fill:none}
    .fil7 {fill:#171717;fill-rule:nonzero}
    .fil10 {fill:#306B23;fill-rule:nonzero}
    .fil9 {fill:#362119;fill-rule:nonzero}
    .fil1 {fill:#3D2117;fill-rule:nonzero}
    .fil5 {fill:#459932;fill-rule:nonzero}
    .fil2 {fill:#4D2A1D;fill-rule:nonzero}
    .fil4 {fill:#4D2F24;fill-rule:nonzero}
    .fil3 {fill:#663F30;fill-rule:nonzero}
    .fil11 {fill:#804935;fill-rule:nonzero}
    .fil18 {fill:#C27A06;fill-rule:nonzero}
    .fil13 {fill:#C77B00;fill-rule:nonzero}
    .fil6 {fill:#CC2F2F;fill-rule:nonzero}
    .fil15 {fill:#DEA300;fill-rule:nonzero}
    .fil17 {fill:#E0A500;fill-rule:nonzero}
    .fil12 {fill:#E68E00;fill-rule:nonzero}
    .fil14 {fill:#FFB745;fill-rule:nonzero}
    .fil16 {fill:#FFBB00;fill-rule:nonzero}
    .fil8 {fill:white;fill-rule:nonzero}
   ]]>
  </style>
 </defs>
 <g id="Camada_x0020_1">
  <metadata id="CorelCorpID_0Corel-Layer"/>
  <rect class="fil0" x="-0.02" y="-0" width="253.99" height="253.99"/>
  <g id="_2450539665024">
   <path class="fil1" d="M223.1 75.14l-9.74 0c-1.17,-0.87 -2.44,-1.7 -3.82,-2.5l-0.66 -0.38c-18.07,-10.44 -47.38,-10.44 -65.46,0l-83.31 48.1c-1.93,1.11 -3.64,2.3 -5.15,3.54l-8.41 0 0 87.47 0.03 0c0.29,6.61 4.8,13.17 13.53,18.21l0.66 0.38c18.08,10.44 47.38,10.44 65.46,0l83.31 -48.1c9.2,-5.31 13.71,-12.3 13.54,-19.25l0.02 0 0 -87.47z"/>
   <path class="fil2" d="M253.98 54.59l-14.01 0c-1.69,-1.25 -3.51,-2.46 -5.49,-3.61l-0.96 -0.55c-26,-15.01 -68.16,-15.01 -94.17,0l-119.86 69.21c-2.77,1.6 -5.23,3.31 -7.41,5.1l-12.09 0 0 13.69 0.03 0c0.43,9.51 6.9,18.94 19.47,26.19l0.95 0.56c26,15.01 68.17,15.01 94.17,0l119.87 -69.21c13.22,-7.64 19.71,-17.69 19.48,-27.7l0.02 0 0 -13.68z"/>
   <path class="fil3" d="M234.48 82.37l-119.87 69.2c-26,15.02 -68.17,15.02 -94.17,0l-0.95 -0.55c-26.01,-15.01 -26.01,-39.35 0,-54.37l119.86 -69.2c26.01,-15.01 68.17,-15.01 94.17,0l0.96 0.55c26,15.01 26,39.36 0,54.37z"/>
   <path class="fil4" d="M240.62 57.37c-0.88,-7.13 -6.06,-14.11 -15.5,-19.56l-0.76 -0.44c-20.88,-12.05 -54.71,-12.05 -75.57,0l-119.95 69.25c-9.43,5.45 -14.61,12.42 -15.5,19.56 -1.09,-8.64 4.07,-17.49 15.5,-24.08l119.95 -69.25c20.86,-12.05 54.69,-12.05 75.57,0l0.76 0.44c11.43,6.59 16.6,15.45 15.5,24.08z"/>
   <path class="fil5" d="M240.62 57.37c-0.9,7.12 -6.08,14.1 -15.5,19.55l-119.95 69.25c-20.86,12.05 -54.69,12.05 -75.57,0l-0.76 -0.44c-9.42,-5.45 -14.6,-12.43 -15.5,-19.55 0.89,-7.14 6.07,-14.11 15.5,-19.56l119.95 -69.25c20.86,-12.05 54.69,-12.05 75.57,0l0.76 0.44c9.44,5.45 14.62,12.43 15.5,19.56z"/>
   <path class="fil6" d="M93.66 87.79c2.47,1.43 2.47,3.74 0,5.17 -2.48,1.43 -6.48,1.43 -8.96,0 -2.47,-1.43 -2.47,-3.74 0,-5.17 2.48,-1.43 6.48,-1.43 8.96,0z"/>
   <path class="fil7" d="M114.32 75.86c2.47,1.43 2.47,3.74 0,5.17 -2.47,1.43 -6.48,1.43 -8.96,0 -2.47,-1.43 -2.47,-3.74 0,-5.17 2.48,-1.43 6.49,-1.43 8.96,0z"/>
   <path class="fil6" d="M134.98 63.93c2.47,1.43 2.47,3.74 0,5.17 -2.47,1.43 -6.48,1.43 -8.95,0 -2.48,-1.43 -2.48,-3.74 0,-5.17 2.47,-1.42 6.48,-1.42 8.95,0z"/>
   <path class="fil7" d="M155.64 52c2.47,1.43 2.47,3.75 0,5.17 -2.47,1.43 -6.48,1.43 -8.95,0 -2.48,-1.42 -2.48,-3.74 0,-5.17 2.47,-1.42 6.48,-1.42 8.95,0z"/>
   <path class="fil6" d="M176.3 40.07c2.48,1.43 2.48,3.75 0,5.17 -2.47,1.43 -6.48,1.43 -8.95,0 -2.47,-1.42 -2.47,-3.74 0,-5.17 2.47,-1.42 6.48,-1.42 8.95,0z"/>
   <path class="fil7" d="M114.32 99.72c2.47,1.43 2.47,3.74 0,5.17 -2.47,1.43 -6.48,1.43 -8.96,0 -2.47,-1.43 -2.47,-3.74 0,-5.17 2.48,-1.43 6.49,-1.43 8.96,0z"/>
   <path class="fil6" d="M134.98 87.79c2.47,1.43 2.47,3.74 0,5.17 -2.47,1.43 -6.48,1.43 -8.95,0 -2.48,-1.43 -2.48,-3.74 0,-5.17 2.47,-1.43 6.48,-1.43 8.95,0z"/>
   <path class="fil7" d="M155.64 75.86c2.47,1.43 2.47,3.74 0,5.17 -2.47,1.43 -6.48,1.43 -8.95,0 -2.48,-1.43 -2.48,-3.74 0,-5.17 2.47,-1.43 6.48,-1.43 8.95,0z"/>
   <path class="fil6" d="M176.3 63.93c2.48,1.43 2.48,3.74 0,5.17 -2.47,1.43 -6.48,1.43 -8.95,0 -2.47,-1.43 -2.47,-3.74 0,-5.17 2.47,-1.42 6.48,-1.42 8.95,0z"/>
   <path class="fil7" d="M196.96 52c2.48,1.43 2.48,3.75 0,5.17 -2.47,1.43 -6.48,1.43 -8.95,0 -2.47,-1.42 -2.47,-3.74 0,-5.17 2.47,-1.42 6.48,-1.42 8.95,0z"/>
   <path class="fil6" d="M134.98 111.65c2.47,1.42 2.47,3.74 0,5.17 -2.47,1.43 -6.48,1.43 -8.95,0 -2.48,-1.43 -2.48,-3.75 0,-5.17 2.47,-1.43 6.48,-1.43 8.95,0z"/>
   <path class="fil7" d="M155.64 99.72c2.47,1.43 2.47,3.74 0,5.17 -2.47,1.43 -6.48,1.43 -8.95,0 -2.48,-1.43 -2.48,-3.74 0,-5.17 2.47,-1.43 6.48,-1.43 8.95,0z"/>
   <path class="fil6" d="M176.3 87.79c2.48,1.43 2.48,3.74 0,5.17 -2.47,1.43 -6.48,1.43 -8.95,0 -2.47,-1.43 -2.47,-3.74 0,-5.17 2.47,-1.43 6.48,-1.43 8.95,0z"/>
   <path class="fil7" d="M196.96 75.86c2.48,1.43 2.48,3.74 0,5.17 -2.47,1.43 -6.48,1.43 -8.95,0 -2.47,-1.43 -2.47,-3.74 0,-5.17 2.47,-1.43 6.48,-1.43 8.95,0z"/>
   <path class="fil6" d="M217.63 63.93c2.47,1.43 2.47,3.74 0,5.17 -2.48,1.43 -6.48,1.43 -8.96,0 -2.47,-1.43 -2.47,-3.74 0,-5.17 2.48,-1.42 6.48,-1.42 8.96,0z"/>
   <path class="fil8" d="M131.19 121.99l96.6 -55.77 -55.45 -32.01 -96.59 55.77 55.44 32.01zm100.73 -55.77l-100.73 58.15 -59.57 -34.39 100.72 -58.16 59.58 34.4z"/>
   <polygon class="fil8" points="191.28,43.95 92.62,100.91 91.59,100.32 190.25,43.35 "/>
   <polygon class="fil8" points="211.34,55.53 112.68,112.49 111.65,111.9 210.31,54.93 "/>
   <polygon class="fil8" points="149.61,112.54 148.58,113.14 91.07,79.94 92.11,79.34 "/>
   <polygon class="fil8" points="170.41,100.54 169.37,101.13 111.86,67.93 112.9,67.34 "/>
   <polygon class="fil8" points="190.55,88.91 189.52,89.51 132.01,56.3 133.04,55.71 "/>
   <polygon class="fil8" points="211.08,77.06 210.05,77.65 152.54,44.45 153.57,43.85 "/>
   <path class="fil2" d="M114.23 117.23l-0.69 0c-1.52,-5.02 -5.63,-9.82 -12.34,-13.7 -17.39,-10.03 -45.57,-10.03 -62.94,0 -6.72,3.88 -10.82,8.68 -12.35,13.7l-0.69 0 0 8.18c0,6.58 4.34,13.16 13.04,18.18 17.37,10.03 45.55,10.03 62.94,0 8.69,-5.02 13.03,-11.6 13.03,-18.18l0 -8.18z"/>
   <path class="fil3" d="M101.2 135.42c-17.39,10.03 -45.57,10.03 -62.94,0 -17.39,-10.04 -17.39,-26.31 0,-36.34 17.37,-10.04 45.55,-10.04 62.94,0 17.38,10.03 17.38,26.3 0,36.34z"/>
   <path class="fil9" d="M95.51 132.1c-14.22,8.21 -37.28,8.21 -51.51,0 -14.22,-8.21 -14.22,-21.53 0,-29.74 14.23,-8.22 37.29,-8.22 51.51,0 14.23,8.21 14.23,21.53 0,29.74z"/>
   <path class="fil6" d="M94.76 131.7c-13.82,7.98 -36.24,7.98 -50.07,0 -13.83,-7.98 -13.83,-20.93 0,-28.91 13.83,-7.98 36.25,-7.98 50.07,0 13.83,7.99 13.83,20.93 0,28.91z"/>
   <path class="fil7" d="M69.7 117.26l21.27 -16.37c1.04,0.45 2.04,0.94 3,1.46 1,0.54 1.93,1.11 2.8,1.7l-27.07 13.21z"/>
   <path class="fil7" d="M69.72 117.25l31.88 -8.95c0.56,0.67 1.07,1.37 1.52,2.08 0.45,0.75 0.83,1.5 1.14,2.25l-34.54 4.62z"/>
   <path class="fil7" d="M69.75 117.25l35.45 0.31c-0.02,0.74 -0.11,1.5 -0.28,2.26 -0.17,0.78 -0.42,1.55 -0.73,2.3l-34.44 -4.87z"/>
   <path class="fil7" d="M69.78 117.26l31.72 9.14c-0.58,0.67 -1.23,1.32 -1.95,1.96 -0.74,0.67 -1.54,1.3 -2.38,1.89l-27.39 -12.99z"/>
   <path class="fil7" d="M69.8 117.27l21.7 16.18c-1.03,0.46 -2.1,0.89 -3.23,1.29 -1.17,0.41 -2.36,0.78 -3.58,1.1l-14.89 -18.57z"/>
   <path class="fil7" d="M69.81 117.29l7.1 20.05c-1.27,0.15 -2.56,0.26 -3.88,0.33 -1.36,0.07 -2.72,0.1 -4.05,0.08l0.83 -20.46z"/>
   <path class="fil7" d="M69.81 117.3l-9.5 19.72c-1.25,-0.2 -2.49,-0.44 -3.71,-0.72 -1.28,-0.3 -2.5,-0.63 -3.67,-1l16.88 -18z"/>
   <path class="fil7" d="M69.79 117.32l-24.43 14.83c-0.93,-0.51 -1.83,-1.06 -2.68,-1.65 -0.89,-0.6 -1.7,-1.23 -2.44,-1.87l29.55 -11.31z"/>
   <path class="fil7" d="M69.76 117.33l-33.72 6.31c-0.4,-0.71 -0.74,-1.44 -1.01,-2.19 -0.27,-0.77 -0.47,-1.54 -0.59,-2.31l35.32 -1.81z"/>
   <path class="fil7" d="M69.72 117.32l-34.82 -3.82c0.24,-0.73 0.55,-1.46 0.94,-2.2 0.4,-0.75 0.87,-1.48 1.41,-2.19l32.47 8.21z"/>
   <path class="fil7" d="M69.69 117.31l-27.3 -13.05c0.83,-0.58 1.72,-1.13 2.67,-1.66 0.98,-0.55 2.01,-1.06 3.07,-1.53l21.56 16.24z"/>
   <path class="fil7" d="M69.68 117.3l-12.09 -19.24c1.21,-0.26 2.47,-0.48 3.75,-0.66 1.33,-0.18 2.67,-0.32 3.99,-0.42l4.35 20.32z"/>
   <path class="fil7" d="M69.68 117.28l5.33 -20.24c1.28,0.12 2.56,0.27 3.84,0.47 1.32,0.2 2.61,0.45 3.85,0.73l-13.02 19.04z"/>
   <path class="fil10" d="M86.8 129.95c0.9,-0.4 1.77,-0.84 2.6,-1.31 0.66,-0.39 1.28,-0.78 1.85,-1.19l-21.47 -10.19 24.86 7.16c0.93,-1.08 1.64,-2.2 2.13,-3.35l-27.02 -3.82 27.8 0.24c0.03,-1.29 -0.21,-2.6 -0.72,-3.87l-27.11 3.63 25.02 -7.03c-0.99,-1.18 -2.25,-2.3 -3.78,-3.34l-21.26 10.38 16.72 -12.86c-2.03,-0.88 -4.22,-1.58 -6.5,-2.1l-10.24 14.98 4.19 -15.92c-2.52,-0.22 -5.09,-0.24 -7.61,-0.06l3.42 16 -9.52 -15.15c-2.64,0.55 -5.15,1.35 -7.45,2.37l16.98 12.79 -21.49 -10.28c-1.69,1.19 -3.04,2.47 -4.05,3.82l25.57 6.47 -27.41 -3c-0.47,1.46 -0.59,2.95 -0.35,4.43l27.8 -1.42 -26.52 4.96c0.78,1.37 1.88,2.69 3.31,3.93l23.24 -8.9 -19.19 11.65c1.83,0.99 3.83,1.82 5.94,2.47l13.27 -14.14 -7.45 15.48c2.22,0.35 4.51,0.53 6.8,0.56l0.65 -16.05 5.57 15.72c2.09,-0.25 4.14,-0.64 6.1,-1.17l-11.68 -14.57 17 12.68z"/>
   <path class="fil5" d="M90.96 106.88c-0.49,-0.34 -1.01,-0.67 -1.56,-0.99 -0.95,-0.55 -1.95,-1.04 -2.98,-1.49l-16.72 12.86 21.26 -10.38z"/>
   <path class="fil5" d="M96.83 113.62c-0.47,-1.16 -1.16,-2.3 -2.09,-3.4l-25.02 7.03 27.11 -3.63z"/>
   <path class="fil5" d="M96.77 121.07c0.49,-1.18 0.75,-2.38 0.78,-3.58l-27.8 -0.24 27.02 3.82z"/>
   <path class="fil5" d="M91.25 127.45c1.35,-0.95 2.48,-1.97 3.39,-3.03l-24.86 -7.16 21.47 10.19z"/>
   <path class="fil5" d="M69.8 117.27l11.68 14.57c1.87,-0.5 3.65,-1.13 5.32,-1.89l-17 -12.68z"/>
   <path class="fil5" d="M69.16 133.34c2.08,0.02 4.17,-0.09 6.22,-0.33l-5.57 -15.72 -0.65 16.05z"/>
   <path class="fil5" d="M56.54 131.44c1.87,0.58 3.82,1.02 5.82,1.34l7.45 -15.48 -13.27 14.14z"/>
   <path class="fil5" d="M46.55 126.22c1,0.85 2.14,1.66 3.45,2.42l0.6 0.33 19.19 -11.65 -23.24 8.9z"/>
   <path class="fil5" d="M41.96 118.75c0.19,1.2 0.62,2.39 1.28,3.54l26.52 -4.96 -27.8 1.42z"/>
   <path class="fil5" d="M44.15 110.85c-0.85,1.12 -1.46,2.28 -1.84,3.47l27.41 3 -25.57 -6.47z"/>
   <path class="fil5" d="M52.71 104.52c-0.94,0.42 -1.85,0.87 -2.71,1.37 -0.64,0.37 -1.24,0.75 -1.8,1.14l21.49 10.28 -16.98 -12.79z"/>
   <path class="fil5" d="M66.26 101.3c-2.07,0.15 -4.12,0.43 -6.1,0.85l9.52 15.15 -3.42 -16z"/>
   <path class="fil5" d="M79.92 102.3c-1.96,-0.45 -3.99,-0.76 -6.05,-0.94l-4.19 15.92 10.24 -14.98z"/>
   <path class="fil11" d="M84.33 125.64c-8.05,4.65 -21.1,4.65 -29.15,0 -8.05,-4.64 -8.05,-12.18 0,-16.83 8.05,-4.64 21.1,-4.64 29.15,0 8.05,4.65 8.05,12.19 0,16.83z"/>
   <path class="fil12" d="M83.97 125.47c-7.87,4.54 -20.62,4.54 -28.48,0 -7.87,-4.55 -7.87,-11.91 0,-16.45 7.86,-4.54 20.61,-4.54 28.47,0 7.87,4.54 7.87,11.9 0.01,16.45z"/>
   <path class="fil13" d="M67.56 110.92l-12.74 -0.92c0,0 5.73,-3.89 11.23,-3.73l1.51 4.65z"/>
   <path class="fil14" d="M70.63 117c0,0 2.74,9.54 3.07,11.09 5.49,-0.73 7.35,-2.12 7.35,-2.12l-10.42 -8.97z"/>
   <path class="fil15" d="M59.4 103.9c0,1.41 -1.14,2.55 -2.54,2.55 -1.41,0 -2.54,-1.14 -2.54,-2.55 0,-1.4 1.13,-2.54 2.54,-2.54 1.4,0 2.54,1.14 2.54,2.54z"/>
   <path class="fil8" d="M58.12 101.94c0.32,0.21 0.49,0.53 0.37,0.72 -0.12,0.18 -0.48,0.17 -0.8,-0.04 -0.32,-0.2 -0.49,-0.52 -0.37,-0.71 0.12,-0.19 0.48,-0.17 0.8,0.03z"/>
   <path class="fil15" d="M85.86 103.9c0,1.41 -1.14,2.55 -2.54,2.55 -1.41,0 -2.55,-1.14 -2.55,-2.55 0,-1.4 1.14,-2.54 2.55,-2.54 1.4,0 2.54,1.14 2.54,2.54z"/>
   <path class="fil8" d="M84.58 101.94c0.32,0.21 0.49,0.53 0.37,0.72 -0.12,0.18 -0.48,0.17 -0.8,-0.04 -0.32,-0.2 -0.49,-0.52 -0.37,-0.71 0.12,-0.19 0.48,-0.17 0.8,0.03z"/>
   <path class="fil16" d="M58.43 104.19c0,0.44 -0.31,0.97 -0.68,1.19 -0.38,0.21 -0.69,0.03 -0.69,-0.4 0,-0.43 0.31,-0.96 0.69,-1.18 0.37,-0.22 0.68,-0.04 0.68,0.39z"/>
   <polygon class="fil16" points="58.26,103.77 69.67,110.39 68.76,112.08 57.27,105.43 "/>
   <path class="fil17" d="M69.83 110.8c0,0.44 -0.3,0.97 -0.68,1.18 -0.37,0.22 -0.68,0.04 -0.68,-0.39 0,-0.43 0.31,-0.96 0.68,-1.18 0.38,-0.22 0.68,-0.04 0.68,0.39z"/>
   <path class="fil16" d="M81.3 104.19c0,0.44 0.3,0.97 0.68,1.19 0.38,0.21 0.68,0.03 0.68,-0.4 0,-0.43 -0.3,-0.96 -0.68,-1.18 -0.38,-0.22 -0.68,-0.04 -0.68,0.39z"/>
   <polygon class="fil16" points="81.47,103.77 70.06,110.39 70.97,112.08 82.46,105.43 "/>
   <path class="fil17" d="M69.9 110.8c0,0.44 0.3,0.97 0.67,1.18 0.38,0.22 0.69,0.04 0.69,-0.39 0,-0.43 -0.31,-0.96 -0.69,-1.18 -0.37,-0.22 -0.67,-0.04 -0.67,0.39z"/>
   <path class="fil18" d="M71.39 107.34l-3.18 0 0 8.7 0.02 0c0,0.36 0.37,0.7 0.98,0.85 0.81,0.19 1.73,-0.03 2.06,-0.5l0.12 -0.35 0 0 0 -8.7z"/>
   <path class="fil16" d="M73.04 104.63c0,1.8 -1.46,3.27 -3.26,3.27 -1.81,0 -3.27,-1.47 -3.27,-3.27 0,-1.81 1.46,-3.27 3.27,-3.27 1.8,0 3.26,1.46 3.26,3.27z"/>
   <path class="fil8" d="M71.4 102.11c0.41,0.26 0.62,0.67 0.47,0.91 -0.16,0.24 -0.62,0.22 -1.03,-0.04 -0.41,-0.26 -0.62,-0.67 -0.47,-0.91 0.16,-0.24 0.62,-0.22 1.03,0.04z"/>
   <path class="fil16" d="M71.31 111.63c0,0.44 -0.3,0.97 -0.68,1.18 -0.37,0.22 -0.68,0.04 -0.68,-0.39 0,-0.44 0.31,-0.96 0.68,-1.18 0.38,-0.22 0.68,-0.04 0.68,0.39z"/>
   <polygon class="fil16" points="71.15,111.21 82.56,117.83 81.65,119.68 70.16,112.87 "/>
   <path class="fil17" d="M82.72 118.25c0,0.43 -0.31,0.96 -0.68,1.18 -0.38,0.21 -0.68,0.03 -0.68,-0.4 0,-0.43 0.3,-0.96 0.68,-1.18 0.37,-0.22 0.68,-0.04 0.68,0.4z"/>
   <path class="fil16" d="M68.42 111.63c0,0.44 0.3,0.97 0.68,1.18 0.37,0.22 0.68,0.04 0.68,-0.39 0,-0.44 -0.31,-0.96 -0.68,-1.18 -0.38,-0.22 -0.68,-0.04 -0.68,0.39z"/>
   <polygon class="fil16" points="68.58,111.21 57.17,117.83 58.08,119.52 69.57,112.87 "/>
   <path class="fil17" d="M57.01 118.25c0,0.43 0.3,0.96 0.68,1.18 0.38,0.21 0.68,0.03 0.68,-0.4 0,-0.43 -0.3,-0.96 -0.68,-1.18 -0.38,-0.22 -0.68,-0.04 -0.68,0.4z"/>
   <path class="fil15" d="M60.23 118.64c0,1.4 -1.13,2.54 -2.54,2.54 -1.41,0 -2.54,-1.14 -2.54,-2.54 0,-1.41 1.13,-2.55 2.54,-2.55 1.41,0 2.54,1.14 2.54,2.55z"/>
   <path class="fil8" d="M58.95 116.68c0.32,0.2 0.49,0.52 0.37,0.71 -0.12,0.19 -0.48,0.17 -0.8,-0.03 -0.32,-0.21 -0.48,-0.53 -0.36,-0.71 0.12,-0.19 0.47,-0.18 0.79,0.03z"/>
   <path class="fil15" d="M85.56 119.09c0,1.4 -1.14,2.54 -2.54,2.54 -1.4,0 -2.54,-1.14 -2.54,-2.54 0,-1.4 1.14,-2.54 2.54,-2.54 1.4,0 2.54,1.14 2.54,2.54z"/>
   <path class="fil8" d="M84.28 117.13c0.32,0.21 0.49,0.52 0.37,0.71 -0.12,0.19 -0.48,0.17 -0.8,-0.03 -0.32,-0.21 -0.49,-0.52 -0.37,-0.71 0.12,-0.19 0.48,-0.18 0.8,0.03z"/>
  </g>
 </g>
</svg>
