<?xml version="1.0" encoding="UTF-8"?>
<!DOCTYPE svg PUBLIC "-//W3C//DTD SVG 1.1//EN" "http://www.w3.org/Graphics/SVG/1.1/DTD/svg11.dtd">
<!-- Creator: CorelDRAW -->
<svg xmlns="http://www.w3.org/2000/svg" xml:space="preserve" width="2.5398mm" height="2.5398mm" version="1.1" style="shape-rendering:geometricPrecision; text-rendering:geometricPrecision; image-rendering:optimizeQuality; fill-rule:evenodd; clip-rule:evenodd"
viewBox="0 0 253.98 253.98"
 xmlns:xlink="http://www.w3.org/1999/xlink"
 xmlns:xodm="http://www.corel.com/coreldraw/odm/2003">
 <defs>
  <style type="text/css">
   <![CDATA[
    .fil0 {fill:none}
    .fil4 {fill:#C6000C}
    .fil1 {fill:#C6000C;fill-rule:nonzero}
    .fil2 {fill:white;fill-rule:nonzero}
    .fil3 {fill:url(#id0);fill-rule:nonzero}
   ]]>
  </style>
  <linearGradient id="id0" gradientUnits="userSpaceOnUse" x1="228" y1="231.41" x2="27.03" y2="23.64">
   <stop offset="0" style="stop-opacity:1; stop-color:black"/>
   <stop offset="1" style="stop-opacity:1; stop-color:#4D4D4D"/>
  </linearGradient>
 </defs>
 <g id="Camada_x0020_1">
  <metadata id="CorelCorpID_0Corel-Layer"/>
  <rect class="fil0" x="-0.02" y="-0" width="253.99" height="253.99"/>
  <g id="_2450852737376">
   <path class="fil1" d="M252.69 126.99c0,69.42 -56.28,125.7 -125.7,125.7 -69.42,0 -125.7,-56.28 -125.7,-125.7 0,-69.42 56.28,-125.7 125.7,-125.7 69.42,0 125.7,56.28 125.7,125.7z"/>
   <path class="fil2" d="M238.63 157.63c-6.5,5.25 -13.21,13.21 -18.83,22.95 -5.62,9.73 -9.16,19.52 -10.46,27.77l8.87 5.12c13.45,-14.17 23.61,-31.48 29.31,-50.71l-8.89 -5.13zm-18.83 -84.22c5.62,9.73 12.33,17.69 18.83,22.94l8.89 -5.13c-5.7,-19.23 -15.87,-36.54 -29.31,-50.71l-8.87 5.12c1.3,8.25 4.84,18.04 10.46,27.78zm-92.81 -53.59c11.24,0 21.49,-1.83 29.29,-4.83l0 -10.26c-9.4,-2.25 -19.2,-3.44 -29.29,-3.44 -10.08,0 -19.89,1.19 -29.29,3.44l0 10.26c7.8,3 18.06,4.83 29.29,4.83zm-92.81 53.59c5.62,-9.74 9.16,-19.53 10.46,-27.78l-8.87 -5.12c-13.44,14.17 -23.61,31.48 -29.31,50.71l8.9 5.13c6.5,-5.25 13.2,-13.21 18.82,-22.94zm0 107.17c-5.62,-9.74 -12.32,-17.7 -18.82,-22.95l-8.9 5.13c5.7,19.23 15.87,36.54 29.31,50.71l8.87 -5.12c-1.3,-8.25 -4.84,-18.05 -10.46,-27.77zm92.81 53.58c-11.23,0 -21.49,1.83 -29.29,4.82l0 10.27c9.4,2.24 19.21,3.44 29.29,3.44 10.09,0 19.89,-1.2 29.29,-3.44l0 -10.27c-7.8,-2.99 -18.05,-4.82 -29.29,-4.82z"/>
   <path class="fil3" d="M222.3 126.99c0,52.64 -42.67,95.31 -95.31,95.31 -52.64,0 -95.31,-42.67 -95.31,-95.31 0,-52.64 42.67,-95.31 95.31,-95.31 52.64,0 95.31,42.67 95.31,95.31z"/>
   <path class="fil2" d="M210.57 126.99c0,46.16 -37.42,83.58 -83.58,83.58 -46.16,0 -83.57,-37.42 -83.57,-83.58 0,-46.16 37.41,-83.57 83.57,-83.57 46.16,0 83.58,37.41 83.58,83.57z"/>
   <path class="fil2" d="M44.46 174.64c4.18,7.23 9.27,13.88 15.14,19.75l5.07 -5.08c-5.42,-5.43 -10.13,-11.57 -14,-18.26l-6.21 3.59zm34.88 34.88l0 0c7.13,4.13 14.84,7.36 22.98,9.54l1.86 -6.93c-7.53,-2.02 -14.66,-5.01 -21.25,-8.82l-3.59 6.21zm0 -165.06l0 0c-7.23,4.18 -13.88,9.27 -19.74,15.13l5.07 5.08c5.43,-5.43 11.57,-10.13 18.26,-14l-3.59 -6.21zm142.96 82.53l0 0c0,-8.53 -1.13,-16.8 -3.24,-24.67l-6.93 1.86c1.94,7.28 3,14.92 3,22.81l7.17 0zm-183.44 0l0 0 -7.18 0c0,8.53 1.14,16.8 3.24,24.67l6.93 -1.86c-1.94,-7.27 -2.99,-14.92 -2.99,-22.81zm5.6 -47.65l0 0c-4.13,7.13 -7.36,14.84 -9.54,22.98l6.94 1.86c2.01,-7.53 5,-14.66 8.82,-21.25l-6.22 -3.59zm82.53 135.78l0 0 0 7.18c8.54,0 16.8,-1.14 24.67,-3.24l-1.86 -6.93c-7.27,1.94 -14.92,2.99 -22.81,2.99zm76.32 -44.07l0 0 6.21 3.59c4.13,-7.13 7.37,-14.84 9.54,-22.98l-6.93 -1.86c-2.01,7.53 -5.01,14.66 -8.82,21.25zm-8.92 -111.46l0 0 -5.08 5.08c5.43,5.43 10.13,11.57 14,18.26l6.21 -3.59c-4.18,-7.23 -9.26,-13.88 -15.13,-19.75zm-67.4 -27.91l0 0c-8.53,0 -16.8,1.14 -24.67,3.24l1.86 6.93c7.28,-1.94 14.92,-2.99 22.81,-2.99l0 -7.18zm44.06 171.63l0 0 3.59 6.21c7.23,-4.18 13.88,-9.27 19.75,-15.13l-5.08 -5.08c-5.42,5.43 -11.57,10.13 -18.26,14zm-19.39 -168.39l0 0 -1.86 6.93c7.53,2.02 14.66,5.01 21.25,8.82l3.59 -6.21c-7.13,-4.13 -14.83,-7.36 -22.98,-9.54z"/>
   <path class="fil4" d="M156.65 68.61c21.18,10.81 35.69,32.83 35.69,58.24 0,15.89 -5.67,30.45 -15.09,41.77l2.14 7.74c-13.12,13.92 -31.75,22.62 -52.4,22.62 -20.71,0 -39.29,-8.72 -52.39,-22.62l2.2 -7.67c-9.46,-11.33 -15.15,-25.92 -15.15,-41.84 0,-25.38 14.47,-47.38 35.62,-58.21l-2.61 -6.01c9.72,-4.89 20.71,-7.65 32.33,-7.65 11.61,0 22.58,2.75 32.3,7.64l-2.64 5.99zm-29.85 67.96l-28.65 -65.89c-20.36,10.47 -34.29,31.7 -34.29,56.17 0,14.84 5.12,28.48 13.69,39.26l16.44 -57.24 33.46 74.71 33.09 -75.16 15.98 57.59c8.52,-10.76 13.61,-24.36 13.61,-39.16 0,-24.5 -13.96,-45.75 -34.37,-56.21l-28.96 65.93z"/>
  </g>
 </g>
</svg>
