<?xml version="1.0" encoding="UTF-8"?>
<!DOCTYPE svg PUBLIC "-//W3C//DTD SVG 1.1//EN" "http://www.w3.org/Graphics/SVG/1.1/DTD/svg11.dtd">
<!-- Creator: CorelDRAW -->
<svg xmlns="http://www.w3.org/2000/svg" xml:space="preserve" width="2.5398mm" height="2.5398mm" version="1.1" style="shape-rendering:geometricPrecision; text-rendering:geometricPrecision; image-rendering:optimizeQuality; fill-rule:evenodd; clip-rule:evenodd"
viewBox="0 0 253.98 253.98"
 xmlns:xlink="http://www.w3.org/1999/xlink"
 xmlns:xodm="http://www.corel.com/coreldraw/odm/2003">
 <defs>
  <style type="text/css">
   <![CDATA[
    .fil0 {fill:none}
    .fil18 {fill:#F21B1B}
    .fil19 {fill:white}
    .fil7 {fill:#FEFEFE;fill-rule:nonzero}
    .fil2 {fill:#FFD450;fill-rule:nonzero}
    .fil14 {fill:#F1F1F0;fill-rule:nonzero}
    .fil3 {fill:#EF9D35;fill-rule:nonzero}
    .fil8 {fill:#E63D3F;fill-rule:nonzero}
    .fil9 {fill:#C33538;fill-rule:nonzero}
    .fil1 {fill:#4F4F4F;fill-rule:nonzero}
    .fil15 {fill:#4C4C4C;fill-rule:nonzero}
    .fil10 {fill:#33CC33;fill-rule:nonzero}
    .fil6 {fill:#666666;fill-rule:nonzero}
    .fil13 {fill:#CCCCCC;fill-rule:nonzero}
    .fil11 {fill:#E01313;fill-rule:nonzero}
    .fil17 {fill:#E68610;fill-rule:nonzero}
    .fil4 {fill:#E6E6E6;fill-rule:nonzero}
    .fil12 {fill:#F21B1B;fill-rule:nonzero}
    .fil16 {fill:#F5BA18;fill-rule:nonzero}
    .fil5 {fill:white;fill-rule:nonzero}
   ]]>
  </style>
 </defs>
 <g id="Camada_x0020_1">
  <metadata id="CorelCorpID_0Corel-Layer"/>
  <rect class="fil0" x="-0.02" y="-0" width="253.99" height="253.99"/>
  <path class="fil1" d="M229.8 143.19l-22.2 0c-1.46,0 -2.64,-1.18 -2.64,-2.64 0,-1.46 1.18,-2.65 2.64,-2.65l22.2 0c1.46,0 2.64,-1.18 2.64,-2.64l0 -66.37c0,-1.46 1.19,-2.65 2.65,-2.65 1.46,0 2.64,1.19 2.64,2.65l0 66.37c0,4.37 -3.56,7.93 -7.93,7.93z"/>
  <path class="fil2" d="M211.14 125.38l-12.37 0 0 30.33 12.37 0c2.92,0 5.29,-2.37 5.29,-5.29l0 -19.74c0,-2.93 -2.37,-5.3 -5.29,-5.3z"/>
  <path class="fil3" d="M211.14 125.38l-3.86 0c2.92,0 5.29,2.37 5.29,5.3l0 19.74c0,2.92 -2.37,5.29 -5.29,5.29l3.86 0c2.92,0 5.29,-2.37 5.29,-5.29l0 -19.74c0,-2.93 -2.37,-5.3 -5.29,-5.3z"/>
  <path class="fil4" d="M101.86 -0.01c-56.26,0 -101.88,29.74 -101.88,86l0 150.68c0,9.57 7.76,17.32 17.32,17.32l169.12 0c9.57,0 17.32,-7.75 17.32,-17.32l0 -150.68c0,-56.26 -45.61,-86 -101.88,-86z"/>
  <path class="fil5" d="M181.28 54.28c-12.83,-28.02 -43.53,-38.42 -79.42,-38.42 -35.88,0 -66.58,10.4 -79.42,38.42 -3.23,7.05 1.85,15.12 9.61,15.12l139.63 0c7.76,0 12.83,-8.07 9.6,-15.12z"/>
  <path class="fil6" d="M174.88 90.82l-146.03 0c-6.38,0 -11.55,5.16 -11.55,11.54l0 58.12c0,6.37 5.17,11.54 11.55,11.54l146.03 0c6.37,0 11.54,-5.17 11.54,-11.54l0 -58.12c0,-6.38 -5.17,-11.54 -11.54,-11.54z"/>
  <path class="fil5" d="M28.85 99.47c-1.6,0 -2.89,1.3 -2.89,2.89l0 58.12c0,1.59 1.29,2.88 2.89,2.88l41.94 0 0 -63.89 -41.94 0z"/>
  <path class="fil7" d="M174.88 99.47l-41.94 0 0 63.89 41.94 0c1.59,0 2.88,-1.29 2.88,-2.88l0 -58.12c0,-1.59 -1.29,-2.89 -2.88,-2.89z"/>
  <polygon class="fil5" points="79.45,163.36 124.28,163.36 124.28,99.47 79.45,99.47 "/>
  <path class="fil8" d="M252.49 70.18c1.98,12.08 -8.32,22.37 -20.39,20.39 -7.31,-1.2 -13.21,-7.1 -14.41,-14.41 -1.98,-12.08 8.31,-22.37 20.39,-20.39 7.31,1.2 13.21,7.1 14.41,14.41z"/>
  <path class="fil9" d="M253.38 68.76c-0.21,-0.84 -0.96,-1.43 -1.82,-1.43l-32.93 0c-0.86,0 -1.61,0.59 -1.82,1.43 -0.36,1.43 -0.6,2.89 -0.6,4.39 0,1.54 0.24,3.01 0.6,4.41 0.21,0.83 0.95,1.42 1.81,1.42l32.95 0c0.86,0 1.6,-0.59 1.81,-1.42 0.36,-1.4 0.6,-2.87 0.6,-4.41 0,-1.5 -0.24,-2.96 -0.6,-4.39z"/>
  <path class="fil10" d="M36.49 191.71c1.57,7.09 -4.6,13.27 -11.69,11.7 -3.58,-0.8 -6.46,-3.68 -7.25,-7.25 -1.57,-7.09 4.61,-13.27 11.7,-11.7 3.57,0.79 6.45,3.68 7.24,7.25z"/>
  <path class="fil11" d="M62.96 191.71c1.57,7.09 -4.61,13.27 -11.7,11.7 -3.58,-0.8 -6.46,-3.68 -7.25,-7.25 -1.57,-7.09 4.61,-13.27 11.7,-11.7 3.57,0.79 6.45,3.68 7.25,7.25z"/>
  <path class="fil5" d="M176.26 219.02l-148.8 0c-5.61,0 -10.16,4.55 -10.16,10.16l0 0.03c0,5.61 4.55,10.16 10.16,10.16l148.8 0c5.61,0 10.16,-4.55 10.16,-10.16l0 -0.03c0,-5.61 -4.55,-10.16 -10.16,-10.16z"/>
  <path class="fil3" d="M168.98 116.37c-11.88,14.63 -14.52,30.25 -13.23,34.08 0.05,1.16 -1.22,1.32 -2.6,1.42l-0.68 0.06c-2.86,0 -4.71,-0.32 -5.72,-1.01 -0.16,-0.11 -0.79,-0.42 -0.79,-1.06 0,-2.7 0.42,-5.66 1.32,-8.89 2.18,-8.03 6.33,-15.82 10.95,-22.64 -10.2,-1.17 -9.29,2.82 -10.31,6.29l-0.9 0.11c-0.48,0 -1.17,-0.16 -2.23,-0.53 -1.58,-0.53 -2.48,-1.06 -2.85,-1.75 -0.11,-0.21 -0.27,-0.42 -0.16,-5.23 0.14,-6.62 -0.23,-6.27 6.48,-5.92 2.67,0.14 6.45,0.28 11.83,-0.01 2.54,0 4.34,-0.16 5.34,-0.43l0.11 0c0.95,0 1.58,0.69 2.33,2.18 0.74,1.42 1.11,2.53 1.11,3.33z"/>
  <path class="fil12" d="M98.98 151.95c-2.86,0 -4.73,-0.33 -5.72,-1.02 -0.18,-0.09 -0.8,-0.44 -0.8,-1.08 0,-10.43 6.41,-22.94 12.3,-31.51 -7.7,-1.1 -9.42,1.18 -10.07,4.82l-0.28 1.47 -0.9 0.09c-0.46,0 -1.16,-0.16 -2.22,-0.51 -1.57,-0.52 -2.48,-1.07 -2.83,-1.73 -0.34,-0.57 -0.33,-9.96 0.46,-10.74 0.61,-0.62 5.84,-0.56 11.24,-0.5 4.93,0.05 10,0.11 11.8,-0.36l0.07 0c0.95,0 1.58,0.66 2.35,2.15 0.73,1.43 1.09,2.52 1.09,3.35 -0.69,0.84 -1.51,1.68 -3.18,4.09 -5.3,7.62 -10.15,18.32 -10.15,27.59 0,1.72 0.09,2.2 0.14,2.38 0.03,1.15 -1.23,1.34 -2.63,1.45l-0.67 0.06z"/>
  <path class="fil12" d="M45.49 151.95c-2.86,0 -4.73,-0.33 -5.72,-1.02 -0.17,-0.09 -0.8,-0.44 -0.8,-1.08 0,-10.29 6.44,-22.98 12.3,-31.51 -8.12,-1.16 -9.5,1.63 -10.07,4.82l-0.28 1.47 -0.9 0.09c-0.45,0 -1.16,-0.16 -2.22,-0.51 -1.57,-0.52 -2.47,-1.07 -2.83,-1.73 -0.34,-0.57 -0.33,-9.96 0.46,-10.74 0.93,-0.94 8.06,-0.35 17.69,-0.46 2.54,0 4.34,-0.14 5.35,-0.4l0.08 0c0.95,0 1.57,0.66 2.34,2.15 0.73,1.43 1.09,2.52 1.09,3.35 -7.51,9.26 -13.33,21.35 -13.33,31.68 0,1.72 0.09,2.2 0.14,2.38 0.03,1.15 -1.23,1.34 -2.63,1.45l-0.67 0.06z"/>
  <path class="fil13" d="M107.32 0.17c-1.82,-0.06 -3.61,-0.18 -5.46,-0.18 -56.26,0 -101.88,29.74 -101.88,86l0 150.68c0,9.57 7.76,17.32 17.32,17.32l10.92 0c-9.56,0 -17.32,-7.75 -17.32,-17.32l0 -150.68c0,-54.42 42.71,-83.94 96.42,-85.82z"/>
  <path class="fil14" d="M186.42 253.99l-79.1 0 79.1 0c9.57,0 17.32,-7.75 17.32,-17.32l0 -80.96 3.54 0 3.86 0c2.92,0 5.29,-2.37 5.29,-5.29l0 -7.23 13.37 0c4.37,0 7.93,-3.56 7.93,-7.93l0 -44.64 0 44.64c0,4.37 -3.56,7.94 -7.93,7.94l-13.37 0 0 7.22c0,2.92 -2.37,5.29 -5.29,5.29l-7.4 0 0 80.96c0,9.57 -7.75,17.32 -17.32,17.32zm17.32 -168c0,-0.05 0,-0.11 0,-0.16 0,0.05 0,0.11 0,0.16zm0 -0.21c0,-0.04 0,-0.08 0,-0.11 0,0.03 0,0.07 0,0.11zm0 -0.19c0,-0.03 0,-0.06 0,-0.08 0,0.03 0,0.05 0,0.08zm0 -0.16c0,-0.03 0,-0.06 0,-0.08 0,0.02 0,0.05 0,0.08zm0 -0.17c0,-0.03 0,-0.05 0,-0.07 0,0.02 0,0.04 0,0.07zm0 -0.17c0,-0.02 0,-0.04 0,-0.07 0,0.03 0,0.05 0,0.07zm0 -0.16c0,-0.02 0,-0.04 0,-0.07 0,0.02 0,0.05 0,0.07zm-0.01 -0.16c0,-0.02 0,-0.04 0,-0.06 0,0.02 0,0.03 0,0.06zm0 -0.17c0,-0.02 0,-0.03 0,-0.05 0,0.02 0,0.03 0,0.05zm0 -0.16c0,-0.02 0,-0.03 0,-0.05 0,0.02 0,0.03 0,0.05zm0 -0.16c0,-0.02 0,-0.03 0,-0.05 0,0.02 0,0.03 0,0.05zm-0.01 -0.16c0,-0.02 0,-0.03 0,-0.05 0,0.02 0,0.03 0,0.05zm0 -0.17c0,-0.01 0,-0.02 0,-0.03 0,0.01 0,0.02 0,0.03zm0 -0.16c0,-0.01 0,-0.02 0,-0.03 0,0.01 0,0.02 0,0.03zm-0.01 -0.16c0,-0.01 0,-0.02 0,-0.02 0,0 0,0.01 0,0.02zm0 -0.16c0,-0.01 0,-0.01 0,-0.02 0,0.01 0,0.01 0,0.02zm13 -6.32c-0.22,-0.92 -0.38,-1.87 -0.46,-2.84 0.08,0.97 0.24,1.92 0.46,2.84zm-0.5 -4l0 0c0,-0.49 0.03,-0.99 0.07,-1.48 -0.04,0.49 -0.07,0.99 -0.07,1.48zm0.12 -1.89c0.11,-0.85 0.28,-1.68 0.48,-2.5 0.01,-0.04 0.02,-0.08 0.04,-0.12 -0.02,0.04 -0.03,0.08 -0.04,0.12 -0.2,0.82 -0.37,1.65 -0.48,2.5zm37.26 -1.57c-0.06,-0.31 -0.13,-0.62 -0.21,-0.93 -0.02,-0.06 -0.03,-0.12 -0.05,-0.17 0.02,0.05 0.03,0.11 0.05,0.17 0.08,0.31 0.15,0.62 0.21,0.93z"/>
  <path class="fil15" d="M229.8 143.19l-13.37 0 0 -5.29 0 0 13.37 0c1.46,0 2.64,-1.18 2.64,-2.64l0 -44.64c0.9,0.13 1.78,0.2 2.65,0.2 0.9,0 1.78,-0.07 2.64,-0.2l0 44.64c0,4.37 -3.56,7.93 -7.93,7.93z"/>
  <path class="fil16" d="M207.28 155.71l-3.54 0 0 -30.33 3.54 0c2.92,0 5.29,2.37 5.29,5.3l0 19.74c0,2.92 -2.37,5.29 -5.29,5.29z"/>
  <path class="fil17" d="M211.14 155.71l-3.86 0 0 0c2.92,0 5.29,-2.37 5.29,-5.29l0 -19.74c0,-2.93 -2.37,-5.3 -5.29,-5.3l3.86 0c2.92,0 5.29,2.37 5.29,5.3l0 19.74c0,2.92 -2.37,5.29 -5.29,5.29z"/>
  <path class="fil13" d="M186.42 253.99l-79.1 0 0 -14.62 68.94 0c5.61,0 10.16,-4.55 10.16,-10.16l0 -0.03c0,-5.61 -4.55,-10.16 -10.16,-10.16l-68.94 0 0 -47 67.56 0c6.37,0 11.54,-5.17 11.54,-11.54l0 -58.12c0,-6.38 -5.17,-11.54 -11.54,-11.54l-67.56 0 0 -21.42 64.36 0c7.76,0 12.83,-8.07 9.6,-15.12 -12.18,-26.59 -40.44,-37.31 -73.96,-38.33l0 -15.78c52.87,1.86 95.08,30.49 96.39,83.28 0,0.01 0,0.01 0,0.02 0,0.04 0,0.09 0,0.14 0,0 0,0.01 0,0.02 0.01,0.04 0.01,0.09 0.01,0.13 0,0.01 0,0.02 0,0.03 0,0.04 0,0.09 0,0.13 0,0.01 0,0.02 0,0.03 0,0.04 0,0.08 0,0.12 0,0.02 0,0.03 0,0.05 0.01,0.03 0.01,0.07 0.01,0.11 0,0.02 0,0.03 0,0.05 0,0.03 0,0.07 0,0.11 0,0.02 0,0.03 0,0.05 0,0.04 0,0.07 0,0.11 0,0.02 0,0.03 0,0.05 0,0.04 0,0.07 0,0.11 0,0.02 0,0.04 0,0.06 0,0.03 0,0.06 0.01,0.09 0,0.03 0,0.05 0,0.07 0,0.03 0,0.06 0,0.09 0,0.03 0,0.05 0,0.07 0,0.03 0,0.07 0,0.1 0,0.02 0,0.04 0,0.07 0,0.03 0,0.06 0,0.09 0,0.02 0,0.05 0,0.08 0,0.02 0,0.05 0,0.08 0,0.02 0,0.05 0,0.08 0,0.03 0,0.05 0,0.08 0,0.03 0,0.07 0,0.11 0,0.01 0,0.03 0,0.05 0,0.05 0,0.11 0,0.16l0 150.68c0,9.57 -7.75,17.32 -17.32,17.32z"/>
  <path class="fil4" d="M171.68 69.4l-64.36 0 0 -16.69 0 -16.31 0 -20.45c33.52,1.02 61.78,11.74 73.96,38.33 3.23,7.05 -1.84,15.12 -9.6,15.12z"/>
  <path class="fil6" d="M174.88 172.02l-67.56 0 0 -8.66 16.96 0 0 -63.89 -16.96 0 0 -8.65 67.56 0c6.37,0 11.54,5.16 11.54,11.54l0 58.12c0,6.37 -5.17,11.54 -11.54,11.54zm-41.94 -72.55l0 63.89 41.94 0c1.59,0 2.88,-1.29 2.88,-2.88l0 -58.12c0,-1.59 -1.29,-2.89 -2.88,-2.89l-41.94 0z"/>
  <path class="fil5" d="M174.88 163.36l-41.94 0 0 -63.89 41.94 0c1.59,0 2.88,1.3 2.88,2.89l0 58.12c0,1.59 -1.29,2.88 -2.88,2.88zm-19.88 -45.24c0.93,0 2,0.07 3.23,0.21 -4.62,6.82 -8.77,14.61 -10.95,22.64 -0.9,3.23 -1.32,6.19 -1.32,8.89 0,0.64 0.63,0.95 0.79,1.06 1.01,0.69 2.86,1.01 5.72,1.01l0.68 -0.06c1.38,-0.1 2.65,-0.26 2.6,-1.42 -1.29,-3.83 1.35,-19.45 13.23,-34.08 0,-0.8 -0.37,-1.91 -1.11,-3.33 -0.75,-1.49 -1.38,-2.18 -2.33,-2.18l-0.11 0c-1,0.27 -2.8,0.43 -5.34,0.43 -2.34,0.13 -4.37,0.17 -6.14,0.17 -2.31,0 -4.18,-0.08 -5.69,-0.16 -1.51,-0.07 -2.66,-0.15 -3.54,-0.15 -3.03,0 -2.83,0.94 -2.94,6.07 -0.11,4.81 0.05,5.02 0.16,5.23 0.37,0.69 1.27,1.22 2.85,1.75 1.06,0.37 1.75,0.53 2.23,0.53l0.9 -0.11c0.89,-3.05 0.3,-6.5 7.08,-6.5z"/>
  <path class="fil14" d="M124.28 163.36l-16.96 0 0 -34.45c1.5,-3.04 3.21,-5.91 4.97,-8.44 1.67,-2.41 2.49,-3.25 3.18,-4.09 0,-0.83 -0.36,-1.92 -1.09,-3.35 -0.77,-1.49 -1.4,-2.15 -2.35,-2.15l-0.07 0c-0.89,0.23 -2.57,0.34 -4.64,0.37l0 -11.78 16.96 0 0 63.89z"/>
  <path class="fil12" d="M235.09 90.82c-0.87,0 -1.75,-0.07 -2.65,-0.2l0 -0.07c-6.52,-0.99 -11.81,-5.51 -13.94,-11.57 0.04,0 0.08,0 0.12,0l32.95 0c0.03,0 0.07,0 0.1,0 -2.12,6.06 -7.42,10.58 -13.94,11.57l0 0.07c-0.86,0.13 -1.74,0.2 -2.64,0.2zm-16.58 -23.49c2.42,-6.86 8.89,-11.81 16.58,-11.81 7.68,0 14.16,4.95 16.58,11.81 -0.04,0 -0.07,0 -0.11,0l-32.93 0c-0.04,0 -0.08,0 -0.12,0z"/>
  <path class="fil11" d="M251.57 78.98l-32.95 0c-0.04,0 -0.08,0 -0.12,0 0,-0.02 -0.01,-0.03 -0.01,-0.05 -0.8,-0.06 -1.48,-0.59 -1.68,-1.37 -0.04,-0.13 -0.07,-0.27 -0.1,-0.41 -0.22,-0.92 -0.38,-1.87 -0.46,-2.84 -0.03,-0.38 -0.04,-0.77 -0.04,-1.16 0,-0.49 0.03,-0.99 0.07,-1.48 0.02,-0.14 0.03,-0.27 0.05,-0.41 0.11,-0.85 0.28,-1.68 0.48,-2.5 0.01,-0.04 0.02,-0.08 0.04,-0.12 0.23,-0.72 0.89,-1.2 1.64,-1.26 0.01,-0.02 0.01,-0.03 0.02,-0.05 0.04,0 0.08,0 0.12,0l32.93 0c0.04,0 0.07,0 0.11,0 0,0.02 0,0.03 0.01,0.04 0.75,0.05 1.4,0.52 1.65,1.22 0.02,0.05 0.03,0.11 0.05,0.17 0.08,0.31 0.15,0.62 0.21,0.93 0.24,1.14 0.39,2.29 0.39,3.46 0,1.54 -0.24,3.01 -0.6,4.41 -0.2,0.79 -0.89,1.32 -1.69,1.38 -0.01,0.01 -0.01,0.03 -0.02,0.04 -0.03,0 -0.07,0 -0.1,0z"/>
  <path class="fil5" d="M176.26 239.37l-68.94 0 0 -20.35 68.94 0c5.61,0 10.16,4.55 10.16,10.16l0 0.03c0,5.61 -4.55,10.16 -10.16,10.16z"/>
  <path class="fil12" d="M152.47 151.93c-2.86,0 -4.71,-0.32 -5.72,-1.01 -0.16,-0.11 -0.79,-0.42 -0.79,-1.06 0,-2.7 0.42,-5.66 1.32,-8.89 2.18,-8.03 6.33,-15.82 10.95,-22.64 -1.23,-0.14 -2.3,-0.21 -3.23,-0.21 -6.78,0 -6.19,3.45 -7.08,6.5l-0.9 0.11c-0.48,0 -1.17,-0.16 -2.23,-0.53 -1.58,-0.53 -2.48,-1.06 -2.85,-1.75 -0.11,-0.21 -0.27,-0.42 -0.16,-5.23 0.11,-5.13 -0.09,-6.07 2.94,-6.07 0.88,0 2.03,0.08 3.54,0.15 1.51,0.08 3.38,0.16 5.69,0.16 1.77,0 3.8,-0.04 6.14,-0.17 2.54,0 4.34,-0.16 5.34,-0.43l0.11 0c0.95,0 1.58,0.69 2.33,2.18 0.74,1.42 1.11,2.53 1.11,3.33 -11.88,14.63 -14.52,30.25 -13.23,34.08 0.05,1.16 -1.22,1.32 -2.6,1.42l-0.68 0.06z"/>
  <path class="fil12" d="M107.32 128.91l0 -17.66c2.07,-0.03 3.75,-0.14 4.64,-0.37l0.07 0c0.95,0 1.58,0.66 2.35,2.15 0.73,1.43 1.09,2.52 1.09,3.35 -0.69,0.84 -1.51,1.68 -3.18,4.09 -1.76,2.53 -3.47,5.4 -4.97,8.44z"/>
  <path class="fil18" d="M101.86 31.64c7.11,0 12.88,5.77 12.88,12.89 0,7.12 -5.77,12.89 -12.88,12.89 -7.12,0 -12.89,-5.77 -12.89,-12.89 0,-7.12 5.77,-12.89 12.89,-12.89zm0 0.44c6.87,0 12.45,5.57 12.45,12.45 0,6.88 -5.58,12.45 -12.45,12.45 -6.88,0 -12.46,-5.57 -12.46,-12.45 0,-6.88 5.58,-12.45 12.46,-12.45z"/>
  <path class="fil19" d="M101.86 32.08c6.87,0 12.45,5.57 12.45,12.45 0,6.88 -5.58,12.45 -12.45,12.45 -6.88,0 -12.46,-5.57 -12.46,-12.45 0,-6.88 5.58,-12.45 12.46,-12.45z"/>
  <path class="fil18" d="M101.82 46.44l-6.34 -14.58c1.92,-0.96 4.08,-1.51 6.38,-1.51 2.29,0 4.45,0.55 6.37,1.51l-6.41 14.58zm-10.3 7.85l3.83 -13.31 6.6 14.74 6.52 -14.83 3.72 13.4c-2.59,2.75 -6.26,4.46 -10.33,4.46 -4.09,0 -7.75,-1.72 -10.34,-4.46z"/>
  <path class="fil18" d="M144.76 34.02c5.81,0 10.52,4.71 10.52,10.51 0,5.81 -4.71,10.52 -10.52,10.52 -5.8,0 -10.51,-4.71 -10.51,-10.52 0,-5.8 4.71,-10.51 10.51,-10.51zm0 0.36c5.61,0 10.16,4.54 10.16,10.15 0,5.61 -4.55,10.16 -10.16,10.16 -5.61,0 -10.15,-4.55 -10.15,-10.16 0,-5.61 4.54,-10.15 10.15,-10.15z"/>
  <path class="fil19" d="M144.76 34.38c5.61,0 10.16,4.54 10.16,10.15 0,5.61 -4.55,10.16 -10.16,10.16 -5.61,0 -10.15,-4.55 -10.15,-10.16 0,-5.61 4.54,-10.15 10.15,-10.15z"/>
  <path class="fil18" d="M144.73 46.1l-5.17 -11.9c1.57,-0.79 3.33,-1.23 5.2,-1.23 1.87,0 3.64,0.44 5.2,1.23l-5.23 11.9zm-8.4 6.4l3.12 -10.86 5.39 12.02 5.32 -12.09 3.03 10.93c-2.11,2.24 -5.1,3.64 -8.43,3.64 -3.33,0 -6.32,-1.41 -8.43,-3.64z"/>
  <path class="fil18" d="M58.95 34.02c5.8,0 10.51,4.71 10.51,10.51 0,5.81 -4.71,10.52 -10.51,10.52 -5.81,0 -10.51,-4.71 -10.51,-10.52 0,-5.8 4.7,-10.51 10.51,-10.51zm0 0.36c5.61,0 10.16,4.54 10.16,10.15 0,5.61 -4.55,10.16 -10.16,10.16 -5.61,0 -10.16,-4.55 -10.16,-10.16 0,-5.61 4.55,-10.15 10.16,-10.15z"/>
  <path class="fil19" d="M58.95 34.38c5.61,0 10.16,4.54 10.16,10.15 0,5.61 -4.55,10.16 -10.16,10.16 -5.61,0 -10.16,-4.55 -10.16,-10.16 0,-5.61 4.55,-10.15 10.16,-10.15z"/>
  <path class="fil18" d="M58.92 46.1l-5.17 -11.9c1.56,-0.79 3.33,-1.23 5.2,-1.23 1.87,0 3.63,0.44 5.19,1.23l-5.22 11.9zm-8.4 6.4l3.12 -10.86 5.38 12.02 5.33 -12.09 3.03 10.93c-2.11,2.24 -5.11,3.64 -8.43,3.64 -3.33,0 -6.32,-1.41 -8.43,-3.64z"/>
 </g>
</svg>
