<svg width="169" height="48" viewBox="0 0 169 48" fill="none" xmlns="http://www.w3.org/2000/svg">
<g clip-path="url(#clip0_1321_4231)">
<path d="M32.6965 125.283L1.05124 38.332C0.219241 36.0125 0.333261 33.4587 1.36866 31.2225C2.40407 28.9864 4.27771 27.2474 6.58474 26.3813L6.64774 26.3603L57.263 7.94852C59.5729 7.09581 62.1265 7.19198 64.3657 8.21602C66.6049 9.24006 68.3479 11.1087 69.2137 13.4138L69.2347 13.4785L71.0547 18.5185L33.8147 120.939C33.3197 122.3 32.9524 123.705 32.7175 125.134L32.6965 125.283ZM167.949 40.7173L126.507 154.69C125.184 158.281 121.791 160.797 117.811 160.797C116.661 160.797 115.559 160.587 114.54 160.202L114.603 160.223L56.99 139.223C53.3727 137.867 50.8422 134.439 50.8422 130.417C50.8422 129.283 51.0417 128.195 51.4145 127.188L51.3935 127.251L92.8335 13.3525C94.1687 9.73352 97.5865 7.20302 101.592 7.20302C102.687 7.20109 103.774 7.39306 104.802 7.77002L104.739 7.74902L162.352 28.7525C165.969 30.107 168.5 33.537 168.5 37.5585C168.5 38.6925 168.3 39.7793 167.928 40.7873L167.949 40.7243V40.7173ZM132.949 85.7973L129.309 77.2555C128.826 76.1144 127.912 75.2103 126.766 74.7403C125.619 74.2702 124.334 74.2723 123.189 74.746L123.22 74.7355L116.22 77.8173C115.083 78.2812 113.809 78.2805 112.672 77.8152C111.535 77.3498 110.627 76.4571 110.141 75.3288L110.13 75.2973L107.12 68.2973C106.882 67.7325 106.534 67.2206 106.096 66.7915C105.658 66.3624 105.139 66.0244 104.57 65.7973C104 65.5702 103.392 65.4585 102.779 65.4685C102.166 65.4786 101.561 65.6103 100.999 65.856L101.03 65.8455L92.4205 69.4855C91.5791 69.8256 90.8583 70.4089 90.3502 71.1608C89.8421 71.9127 89.5697 72.799 89.568 73.7065C89.568 74.3838 89.7167 75.0243 89.9845 75.6018L89.974 75.5755L100.264 99.869C100.775 101.002 101.708 101.891 102.864 102.346C104.021 102.801 105.31 102.786 106.455 102.305L106.424 102.316L130.644 91.9555C131.192 91.6921 131.682 91.3217 132.085 90.866C132.488 90.4104 132.795 89.8788 132.989 89.3025C133.184 88.7262 133.261 88.1169 133.216 87.5104C133.171 86.9039 133.005 86.3125 132.728 85.771L132.739 85.7973H132.949Z" fill="white" fill-opacity="0.08"/>
</g>
<defs>
<clipPath id="clip0_1321_4231">
<rect width="168" height="168" fill="white" transform="translate(0.5)"/>
</clipPath>
</defs>
</svg>
