<svg width="168" height="48" viewBox="0 0 168 48" fill="none" xmlns="http://www.w3.org/2000/svg">
<g clip-path="url(#clip0_1321_4220)">
<path d="M167.99 94.4055C165.386 93.211 162.554 92.5966 159.689 92.6048C156.683 92.6048 153.828 93.2698 151.265 94.458L151.387 94.4055C151.935 92.4 152.252 90.1005 152.252 87.731C152.252 78.54 147.523 70.4515 140.374 65.7668L140.275 65.702C152.372 64.5785 158.702 43.687 158.702 43.687C150.731 28.966 139.045 17.143 124.878 9.22952L124.446 9.00727C124.446 9.00727 104.045 6.19502 97.923 12.663C90.3263 0.353516 68.7313 0.353516 68.7313 0.353516C51.5988 3.64002 36.7412 11.7338 25.1772 23.156L25.1877 23.1473C25.189 26.3849 25.9191 29.5808 27.3238 32.4979C28.7286 35.4149 30.772 37.9783 33.3025 39.998L33.3445 40.0295C22.582 42.5618 11.396 57.687 13.2265 63.8085C12.133 62.3442 10.7127 61.1554 9.07887 60.3366C7.44499 59.5179 5.64255 59.0918 3.815 59.0923C3.71 59.0923 3.6085 59.0923 3.5035 59.0975H3.51925C1.30375 66.3198 0.01575 74.62 0 83.2195V83.2353C0 92.5155 1.519 101.437 4.3225 109.774L4.15275 109.188C8.09335 106.016 11.0893 101.824 12.8153 97.069L12.873 96.8783C18.207 100.398 24.7555 102.487 31.7888 102.487C35.2485 102.487 38.5945 101.98 41.755 101.036L41.5065 101.099C39.291 105.579 37.9925 110.85 37.9925 116.428C37.9925 123.428 40.04 129.95 43.5645 135.426L43.4805 135.289C36.8648 136.217 30.778 139.417 26.264 144.342L26.243 144.365C41.349 158.767 61.845 167.636 84.4165 167.646C91.5915 167.631 98.5512 166.707 105.184 164.987L104.608 165.114C100.688 156.034 93.548 148.964 84.665 145.229L84.4165 145.14C94.2673 144.575 103.975 130.155 105.521 120.306C112.597 123.524 120.869 125.396 129.58 125.396C131.688 125.397 133.794 125.286 135.889 125.064L135.632 125.085C134.122 128.795 133.247 133.1 133.247 137.604C133.247 142.111 134.122 146.416 135.714 150.357L135.637 150.129C152.92 136.813 164.824 117.24 167.948 94.8588L168 94.416L167.99 94.4055ZM103.479 109.673C92.7168 94.4773 61.9045 85.4018 45.7223 94.409C55.0078 71.6153 51.7738 56.7735 40.2342 41.0148C61.3392 42.9818 86.3853 32.0093 96.5143 17.9428C99.4017 33.2063 116.21 58.674 131.689 63.8068C106.507 75.271 103.621 93.352 103.479 109.673Z" fill="white" fill-opacity="0.08"/>
</g>
<defs>
<clipPath id="clip0_1321_4220">
<rect width="168" height="168" fill="white"/>
</clipPath>
</defs>
</svg>
