<svg width="16" height="16" viewBox="0 0 16 16" fill="none" xmlns="http://www.w3.org/2000/svg">
<path d="M15.999 8.99099C15.751 8.87723 15.4813 8.81872 15.2085 8.81949C14.9222 8.81949 14.6503 8.88283 14.4062 8.99599L14.4178 8.99099C14.47 8.79999 14.5002 8.58099 14.5002 8.35533C14.5002 7.47999 14.0498 6.70966 13.369 6.26349L13.3595 6.25733C14.5117 6.15033 15.1145 4.16066 15.1145 4.16066C14.3553 2.75866 13.2423 1.63266 11.8932 0.878994L11.852 0.857828C11.852 0.857828 9.909 0.589994 9.326 1.20599C8.6025 0.0336609 6.54583 0.0336609 6.54583 0.0336609C4.91417 0.346661 3.49917 1.11749 2.39783 2.20533L2.39883 2.20449C2.39895 2.51284 2.46848 2.81721 2.60227 3.09503C2.73606 3.37284 2.93067 3.61698 3.17167 3.80933L3.17567 3.81233C2.15067 4.05349 1.08533 5.49399 1.25967 6.07699C1.15552 5.93754 1.02026 5.82432 0.864654 5.74634C0.709046 5.66836 0.537386 5.62778 0.363333 5.62783C0.353333 5.62783 0.343667 5.62783 0.333667 5.62833H0.335167C0.124167 6.31616 0.0015 7.10666 0 7.92566V7.92716C0 8.81099 0.144667 9.66066 0.411667 10.4547L0.3955 10.3988C0.770795 10.0967 1.05613 9.69754 1.2205 9.24466L1.226 9.22649C1.734 9.56166 2.35767 9.76066 3.0275 9.76066C3.357 9.76066 3.67567 9.71233 3.97667 9.62249L3.953 9.62849C3.742 10.0552 3.61833 10.5572 3.61833 11.0883C3.61833 11.755 3.81333 12.3762 4.149 12.8977L4.141 12.8847C3.51094 12.973 2.93124 13.2778 2.50133 13.7468L2.49933 13.749C3.938 15.1207 5.89 15.9653 8.03967 15.9663C8.723 15.9648 9.38583 15.8768 10.0175 15.713L9.96267 15.7252C9.58933 14.8603 8.90933 14.187 8.06333 13.8313L8.03967 13.8228C8.97783 13.769 9.90233 12.3957 10.0497 11.4577C10.7235 11.7642 11.5113 11.9425 12.341 11.9425C12.5417 11.9426 12.7423 11.932 12.9418 11.9108L12.9173 11.9128C12.7735 12.2662 12.6902 12.6762 12.6902 13.1052C12.6902 13.5343 12.7735 13.9443 12.9252 14.3197L12.9178 14.298C14.5638 13.0298 15.6975 11.1657 15.995 9.03416L16 8.99199L15.999 8.99099ZM9.85517 10.445C8.83017 8.99783 5.89567 8.13349 4.3545 8.99133C5.23883 6.82049 4.93083 5.40699 3.83183 3.90616C5.84183 4.09349 8.22717 3.04849 9.19183 1.70883C9.46683 3.16249 11.0677 5.58799 12.5418 6.07683C10.1435 7.16866 9.86867 8.89066 9.85517 10.445Z" fill="white" fill-opacity="0.4"/>
</svg>
