<svg width="96" height="96" viewBox="0 0 96 96" fill="none" xmlns="http://www.w3.org/2000/svg">
<path fill-rule="evenodd" clip-rule="evenodd" d="M56.8 47.08C53.1415 54.1245 51.2214 61.9421 51.2 69.88V74.88H32.32C32.3591 67.0252 34.0632 59.2679 37.32 52.12C40.7697 44.4659 45.3102 37.352 50.8 31H22.8V16.36H72V24.12C66.1574 31.2304 61.0638 38.9244 56.8 47.08ZM83.2 63.32C80.1931 67.1286 78.1363 71.5986 77.2 76.36L76.6 79.36L60 76.32C61.7073 67.5581 66.4354 59.6733 73.36 54.04L61.36 51.68L66.4 41.04L96 46.88L95.08 51.52C90.7434 55.0551 86.7643 59.0074 83.2 63.32ZM24.68 72.64C23.5207 67.9235 23.5207 62.9965 24.68 58.28C26.0474 52.8096 27.9916 47.4999 30.48 42.44L29.36 37.84L0 44.88V56.56L12 53.72C8.00229 61.7467 6.98176 70.9314 9.12 79.64L25.4 75.64L24.68 72.64Z" fill="#B1BAD3"/>
</svg>
