<svg width="56" height="56" viewBox="0 0 56 56" fill="none" xmlns="http://www.w3.org/2000/svg">
<g clip-path="url(#clip0_661_668)">
<path d="M28.012 35.184C29.02 35.184 29.863 34.34 29.863 33.356V9.49599L29.723 5.97998L31.293 7.64498L34.855 11.418C35.184 11.793 35.675 11.981 36.121 11.981C37.105 11.981 37.831 11.301 37.831 10.34C37.831 9.84798 37.621 9.47299 37.269 9.12099L29.371 1.45698C28.879 0.987985 28.481 0.846985 28.011 0.846985C27.52 0.846985 27.121 0.987985 26.652 1.45698L18.73 9.12099C18.379 9.47299 18.168 9.84798 18.168 10.34C18.168 11.3 18.871 11.98 19.855 11.98C20.301 11.98 20.816 11.793 21.145 11.418L24.707 7.64498L26.277 5.98098L26.137 9.49599V33.356C26.137 34.34 27.004 35.184 28.012 35.184ZM7.71501 55.152H48.285C53.184 55.152 55.645 52.715 55.645 47.887V34.949C55.645 32.84 55.34 31.832 54.309 30.496L46.433 20.442C43.598 16.809 42.473 16.082 38.324 16.082H34.176V19.363H38.582C40.292 19.363 41.418 19.668 42.754 21.379L50.84 31.879C51.754 33.074 51.449 33.543 50.16 33.543H35.7C34.41 33.543 33.777 34.527 33.777 35.583V35.653C33.777 38.535 31.527 41.583 27.988 41.583C24.473 41.583 22.223 38.535 22.223 35.653V35.583C22.223 34.527 21.59 33.543 20.301 33.543H5.86301C4.52701 33.543 4.31601 32.981 5.16001 31.879L13.2 21.449C14.582 19.691 15.707 19.363 17.418 19.363H21.848V16.083H17.676C13.527 16.083 12.426 16.809 9.52001 20.512L1.69001 30.496C0.661011 31.832 0.355011 32.84 0.355011 34.95V47.888C0.355011 52.739 2.84001 55.152 7.71501 55.152Z" fill="white" fill-opacity="0.4"/>
</g>
<defs>
<clipPath id="clip0_661_668">
<rect width="56" height="56" fill="white"/>
</clipPath>
</defs>
</svg>
