<svg width="56" height="56" viewBox="0 0 56 56" fill="none" xmlns="http://www.w3.org/2000/svg">
<path d="M28.012 34.61C28.48 34.61 28.879 34.445 29.371 33.976L37.27 26.336C37.621 25.984 37.832 25.609 37.832 25.094C37.832 24.156 37.105 23.453 36.121 23.453C35.8824 23.4533 35.6465 23.5036 35.4284 23.6005C35.2104 23.6975 35.0151 23.839 34.855 24.016L31.293 27.812L29.723 29.453L29.863 25.961V2.73401C29.863 1.75001 29.02 0.906006 28.012 0.906006C27.004 0.906006 26.137 1.75001 26.137 2.73401V25.961L26.277 29.476L24.707 27.812L21.144 24.015C20.816 23.64 20.301 23.453 19.855 23.453C18.871 23.453 18.168 24.156 18.168 25.093C18.168 25.609 18.378 25.984 18.73 26.336L26.652 33.976C27.121 34.446 27.519 34.61 28.012 34.61ZM7.71501 55.093H48.285C53.184 55.093 55.645 52.655 55.645 47.827V34.891C55.645 32.781 55.34 31.773 54.309 30.437L46.433 20.383C43.598 16.75 42.473 16.023 38.324 16.023H34.176V19.305H38.582C40.292 19.305 41.418 19.609 42.754 21.32L50.84 31.82C51.754 33.016 51.449 33.484 50.16 33.484H35.7C34.41 33.484 33.777 34.469 33.777 35.524V35.594C33.777 38.476 31.527 41.524 27.988 41.524C24.473 41.524 22.223 38.476 22.223 35.594V35.524C22.223 34.469 21.59 33.484 20.301 33.484H5.86301C4.52701 33.484 4.31601 32.922 5.16001 31.82L13.2 21.39C14.582 19.633 15.707 19.305 17.418 19.305H21.848V16.023H17.676C13.527 16.023 12.426 16.75 9.52001 20.453L1.69001 30.437C0.661011 31.773 0.355011 32.781 0.355011 34.891V47.828C0.355011 52.68 2.84001 55.094 7.71501 55.094" fill="#A7FF66" fill-opacity="0.8"/>
</svg>
